HIERARCHY
ROOT Hips
{
	OFFSET -3.958830 18.904000 13.208200
	CHANNELS 6 Xposition Yposition Zposition Zrotation Yrotation Xrotation 
	JOINT LHipJoint
	{
		OFFSET 0.000000 0.000000 0.000000
		CHANNELS 3 Zrotation Yrotation Xrotation
		JOINT LeftUpLeg
		{
			OFFSET 1.800000 -1.400000 0.085000
			CHANNELS 3 Zrotation Yrotation Xrotation
			JOINT LeftLeg
			{
				OFFSET 2.215000 -6.000000 0.000000
				CHANNELS 3 Zrotation Yrotation Xrotation
				JOINT LeftFoot
				{
					OFFSET 2.500000 -6.900000 0.000000
					CHANNELS 3 Zrotation Yrotation Xrotation
					JOINT LeftToeBase
					{
						OFFSET 0.200000 -0.500000 1.950000
						CHANNELS 3 Zrotation Yrotation Xrotation
						End Site
						{
							OFFSET 0.000000 0.000000 0.000000
						}
					}
				}
			}
		}
	}
	JOINT RHipJoint
	{
		OFFSET 0.000000 0.000000 0.000000
		CHANNELS 3 Zrotation Yrotation Xrotation
		JOINT RightUpLeg
		{
			OFFSET -1.800000 -1.400000 0.085000
			CHANNELS 3 Zrotation Yrotation Xrotation
			JOINT RightLeg
			{
				OFFSET -2.215000 -6.000000 0.000000
				CHANNELS 3 Zrotation Yrotation Xrotation
				JOINT RightFoot
				{
					OFFSET -2.500000 -6.900000 0.000000
					CHANNELS 3 Zrotation Yrotation Xrotation
					JOINT RightToeBase
					{
						OFFSET -0.200000 -0.500000 1.950000
						CHANNELS 3 Zrotation Yrotation Xrotation
						End Site
						{
							OFFSET 0.000000 0.000000 0.000000
						}
					}
				}
			}
		}
	}
	JOINT LowerBack
	{
		OFFSET 0.000000 0.000000 0.000000
		CHANNELS 3 Zrotation Yrotation Xrotation
		JOINT Spine
		{
			OFFSET -0.087000 1.940000 -0.288900
			CHANNELS 3 Zrotation Yrotation Xrotation
			JOINT Spine1
			{
				OFFSET 0.000000 1.950000 0.060000
				CHANNELS 3 Zrotation Yrotation Xrotation
				JOINT Neck
				{
					OFFSET 0.000000 0.000000 0.000000
					CHANNELS 3 Zrotation Yrotation Xrotation
					JOINT Neck1
					{
						OFFSET 0.000000 1.600000 0.340000
						CHANNELS 3 Zrotation Yrotation Xrotation
						JOINT Head
						{
							OFFSET 0.000000 1.667000 -0.240000
							CHANNELS 3 Zrotation Yrotation Xrotation
							End Site
							{
								OFFSET 0.000000 0.000000 0.000000
							}
						}
					}
				}
				JOINT LeftShoulder
				{
					OFFSET 0.000000 0.000000 0.000000
					CHANNELS 3 Zrotation Yrotation Xrotation
					JOINT LeftArm
					{
						OFFSET 2.700000 1.550000 -0.730000
						CHANNELS 3 Zrotation Yrotation Xrotation
						JOINT LeftForeArm
						{
							OFFSET 5.450000 0.000000 0.000000
							CHANNELS 3 Zrotation Yrotation Xrotation
							JOINT LeftHand
							{
								OFFSET 3.450000 0.000000 0.000000
								CHANNELS 3 Zrotation Yrotation Xrotation
								JOINT LeftHandIndex1
								{
									OFFSET 0.750000 0.000000 0.000000
									CHANNELS 3 Zrotation Yrotation Xrotation
									End Site
									{
										OFFSET 0.000000 0.000000 0.000000
									}
								}
							}
						}
					}
				}
				JOINT RightShoulder
				{
					OFFSET 0.000000 0.000000 0.000000
					CHANNELS 3 Zrotation Yrotation Xrotation
					JOINT RightArm
					{
						OFFSET -2.700000 1.550000 -0.730000
						CHANNELS 3 Zrotation Yrotation Xrotation
						JOINT RightForeArm
						{
							OFFSET -5.450000 0.000000 0.000000
							CHANNELS 3 Zrotation Yrotation Xrotation
							JOINT RightHand
							{
								OFFSET -3.450000 0.000000 0.000000
								CHANNELS 3 Zrotation Yrotation Xrotation
								JOINT RightHandIndex1
								{
									OFFSET -0.750000 0.000000 0.000000
									CHANNELS 3 Zrotation Yrotation Xrotation
									End Site
									{
										OFFSET 0.000000 0.000000 0.000000
									}
								}
							}
						}
					}
				}
			}
		}
	}
}
MOTION
Frames: 14
Frame Time: 0.016667
-0.555740 17.651870 0.284960 -1.664387 4.031060 -7.196885 -14.563518 12.131666 3.100385 6.367402 -3.045357 -26.370220 -6.430523 5.388726 16.666779 -0.795346 3.645825 3.312622 0.717660 0.531620 0.336040 18.892992 -11.826532 2.709755 0.860644 2.988794 -13.825268 1.952496 -7.313688 38.421736 -0.701367 -6.129651 2.280631 0.486580 0.372340 0.234980 -5.412354 1.356750 -7.384660 24.421372 -0.192683 14.996407 -12.251966 3.499989 18.798634 2.875848 -2.358015 -7.987535 -7.065619 -3.259698 37.311430 0.106940 -7.197410 -10.035700 -1.038866 -27.008864 1.003369 -23.301139 -49.569701 9.941508 60.697390 -58.753047 -34.643468 -3.475548 2.178751 0.203720 0.233850 -0.139510 0.366070 -5.248281 26.824053 5.116855 14.420839 31.864689 -3.328290 -78.802986 63.988042 -49.770684 1.011097 -0.082080 -0.114400 0.332800 -0.113580 -0.050560 
-0.554280 17.690590 0.291070 -1.578961 4.446175 -7.139175 -14.580364 12.179634 3.118835 6.123772 -3.124368 -26.227692 -6.765465 5.695904 17.841802 -0.753921 3.796616 3.248728 0.717860 0.520240 0.338580 18.874395 -11.784722 2.720098 1.217097 3.017780 -14.001333 1.482599 -7.028092 38.263035 -0.692441 -6.032773 2.310364 0.467120 0.350020 0.236910 -5.368579 1.226926 -7.395028 24.122161 -0.274609 15.250421 -12.153701 3.479640 18.762467 2.850931 -2.590667 -8.244906 -7.663127 -3.252603 37.585043 0.515530 -7.479880 -10.289690 -1.711445 -25.749824 1.323912 -26.249464 -49.119653 11.136497 64.304063 -62.123129 -38.997226 -3.369268 1.967343 0.221620 0.209630 -0.127410 0.363160 -4.542030 25.805140 5.475165 15.568659 31.256336 -2.573027 -84.530002 65.512021 -55.845925 0.965287 0.336610 -0.104560 0.312080 -0.118930 -0.052650 
-0.552440 17.780810 0.298050 -1.527375 5.452708 -7.035906 -14.606017 12.295497 3.121463 5.583612 -3.197828 -25.969810 -6.537549 6.014704 19.792752 -0.678420 3.963888 3.183092 0.694110 0.488410 0.326520 18.841585 -11.727354 2.751326 1.984794 3.056818 -14.445546 0.351583 -6.422326 38.047996 -0.670520 -5.839134 2.391153 0.419220 0.317400 0.221550 -5.304765 0.997572 -7.409385 23.819398 -0.556115 15.807088 -12.263091 3.382969 18.759970 2.868552 -2.939495 -9.045309 -8.681603 -3.186795 38.225780 1.065000 -7.790730 -10.603140 -3.251124 -23.580160 1.800151 -30.426785 -47.776221 12.393701 71.763164 -68.612443 -48.526171 -3.164644 1.361820 0.249470 0.169920 -0.106710 0.358980 -3.030211 24.000501 6.811733 17.754756 30.190672 0.325275 -97.321153 66.091217 -71.583217 1.210327 0.940367 -0.094670 0.292950 -0.126490 -0.052240 
-0.548120 17.882380 0.309130 -1.488052 7.376217 -7.458459 -14.642063 12.406239 3.086595 4.927800 -3.247383 -24.992586 -6.450128 6.382543 21.776698 -0.621865 4.218035 3.093556 0.673260 0.448050 0.325300 18.801212 -11.676864 2.775007 2.469600 3.088911 -14.692805 -0.189657 -6.253048 38.463760 -0.681869 -5.807065 2.410324 0.380720 0.296330 0.211080 -5.238400 0.804598 -7.402773 23.507717 -0.854070 16.711941 -11.779056 3.276811 19.145010 2.886192 -3.138350 -9.644015 -9.300790 -3.457695 38.597785 1.814070 -8.376500 -11.582860 -4.945699 -20.867510 1.809219 -35.247453 -46.907269 14.209639 79.364763 -75.814218 -60.680574 -3.009911 0.277099 0.292350 0.134840 -0.089860 0.347220 -1.195965 21.549729 8.277946 19.848883 27.802429 3.082108 -114.737861 65.926105 -101.921410 1.991930 -0.615890 -0.101150 0.293480 -0.119980 -0.062260 
-0.540450 17.978340 0.302740 -1.114980 10.492721 -7.817392 -14.698302 12.492014 3.119049 3.612943 -3.580767 -24.411174 -5.982767 6.693221 24.393114 -0.516548 4.491986 3.003257 0.613690 0.370820 0.311600 18.734031 -11.631771 2.785261 2.071368 3.238854 -15.762446 -0.084376 -6.563050 39.689645 -0.698236 -5.899930 2.384118 0.305270 0.274960 0.195030 -5.146197 0.623197 -7.489670 22.840953 -1.494967 17.973278 -11.804959 2.956018 19.074078 3.151616 -3.106117 -10.326024 -9.323464 -4.041786 39.100068 2.377830 -8.991240 -11.925850 -7.229046 -19.030312 4.082846 -36.807605 -44.369407 19.768426 108.934880 -75.151491 -102.463380 -3.907780 1.782331 0.318730 0.100140 -0.075440 0.318890 0.686297 20.180711 7.818710 23.383150 23.417739 -0.769550 -142.741255 70.376306 -142.791314 1.831331 -2.030531 -0.099520 0.283030 -0.105370 -0.065270 
-0.530790 18.040690 0.299030 -0.488021 13.648038 -7.916769 -14.768963 12.565524 3.179803 2.015525 -4.034270 -24.085074 -5.166949 6.943002 27.427787 -0.421312 4.835095 2.888193 0.569880 0.315720 0.298450 18.667270 -11.495349 2.815113 1.333875 3.800928 -17.904503 -0.190552 -7.166825 43.386130 -0.797094 -6.352142 2.229392 0.250600 0.260880 0.184200 -5.049180 0.294625 -7.614820 21.674341 -2.241142 19.221461 -11.461074 2.172302 17.734755 3.070049 -3.132174 -10.276059 -9.743039 -4.320223 40.126351 2.866470 -9.512050 -12.739680 -8.053054 -17.611919 3.812133 -41.096091 -39.006327 12.901386 -178.175563 -79.591551 171.745019 -3.357040 3.225185 0.361730 0.068210 -0.050570 0.303840 1.585463 18.738467 7.902815 27.599399 19.975883 -3.036999 -169.764195 70.106819 -178.311493 1.688216 -1.940532 -0.106870 0.291710 -0.092540 -0.068090 
-0.520650 18.091850 0.306540 -0.141361 16.402524 -8.315987 -14.840428 12.666123 3.172843 0.966887 -4.241481 -23.152313 -4.213712 7.119610 30.113323 -0.334010 5.178876 2.765952 0.542720 0.264180 0.298910 18.604130 -11.320934 2.902224 0.962310 4.499795 -19.964539 -0.537288 -7.825089 47.965923 -0.948193 -6.991416 2.014548 0.201390 0.226730 0.170400 -4.942896 -0.078480 -7.739227 20.579668 -2.915178 20.547724 -10.716734 1.470842 16.625488 3.096409 -3.282421 -10.529997 -10.443111 -4.231051 41.496912 3.495630 -9.970140 -13.157680 -9.957551 -16.383005 4.051333 -44.030069 -34.767068 10.812274 -148.546479 -74.902377 132.584129 -3.378565 2.863146 0.416360 0.024220 -0.027830 0.286500 3.496375 17.778144 8.039361 29.814343 16.686674 -4.387357 172.560696 67.082545 155.280645 1.726721 -1.706278 -0.114640 0.281330 -0.087190 -0.084030 
-0.525170 18.129670 0.317280 0.756042 19.122183 -9.029355 -14.933255 12.826237 3.128438 -0.227801 -4.206077 -21.123208 -3.341885 7.214979 31.993763 -0.267060 5.437436 2.664368 0.527870 0.226710 0.331030 18.512276 -11.134371 3.010386 0.117778 5.243424 -21.851465 -1.150837 -8.683693 54.038587 -1.186738 -7.907351 1.702943 0.160440 0.158460 0.148890 -4.764466 -0.557861 -7.883948 18.401900 -3.501505 22.615176 -9.839287 0.717148 15.613954 3.100263 -3.257587 -10.901206 -10.972317 -3.791662 43.638601 4.177320 -9.930620 -14.557550 -11.710146 -15.952326 4.216702 -45.086407 -30.487090 8.444721 -135.187113 -70.189414 109.391113 -3.506176 2.849346 0.500700 -0.046140 0.021490 0.249410 5.343429 17.526345 8.440212 32.250982 13.879999 -5.635157 160.519905 63.974362 133.639474 1.875610 -1.511944 -0.125570 0.275680 -0.083780 -0.117690 
-0.522000 18.134630 0.321870 1.390398 21.569641 -9.558717 -15.022906 12.927495 3.052411 -1.357119 -4.093479 -19.403276 -1.709696 7.016172 34.021601 -0.211032 5.668393 2.574986 0.522710 0.199980 0.376760 18.440659 -10.908004 3.196519 -0.292264 6.218407 -24.073571 -2.103237 -9.636908 61.311414 -1.505717 -9.050312 1.341496 0.123840 0.096340 0.144990 -4.600924 -0.958777 -8.039220 16.555163 -3.959277 24.526845 -9.210039 0.096187 14.697772 3.226783 -2.874369 -11.238798 -10.604259 -3.792030 45.188642 4.359880 -9.612500 -16.490340 -13.271586 -15.543810 4.360764 -46.462953 -26.707716 6.231557 -128.635042 -66.565819 95.710930 -3.570251 2.999204 0.585450 -0.105240 0.081110 0.216850 6.746212 16.974880 8.873189 35.440569 11.216739 -6.793571 153.664454 61.434583 118.975519 2.025985 -1.437868 -0.130810 0.276730 -0.082400 -0.151690 
-0.521830 18.095050 0.333340 1.503896 23.896913 -9.934691 -15.074620 12.950307 2.914424 -2.059688 -3.825774 -17.977577 0.085688 6.611386 35.336829 -0.178810 5.782503 2.525083 0.507900 0.153660 0.407430 18.423698 -10.652300 3.468199 -0.114248 7.475743 -26.419223 -2.841165 -10.946701 69.207398 -1.869125 -10.344354 0.960838 0.076440 0.047140 0.148080 -4.563052 -1.219673 -8.192997 15.837726 -4.563926 25.864289 -9.082571 -0.631826 13.509211 3.187491 -2.672116 -11.577041 -10.530350 -3.487042 46.706432 5.067450 -9.502910 -17.754910 -14.763221 -15.129009 4.497946 -47.427704 -22.495246 3.661024 -122.652159 -62.530609 82.882483 -3.573783 3.198371 0.661010 -0.156320 0.123890 0.181880 8.351251 16.354320 9.312671 38.909532 8.371699 -7.948882 149.374315 59.376229 108.751998 2.146147 -1.435831 -0.133420 0.264220 -0.070430 -0.181670 
-0.536180 18.019030 0.347870 1.682811 25.833489 -10.360128 -15.140409 12.968198 2.775331 -2.521027 -3.519349 -16.742650 1.848326 6.230112 36.663419 -0.189106 5.968877 2.459711 0.486880 0.093810 0.437940 18.395667 -10.356807 3.769713 0.073599 8.877366 -28.645085 -3.468372 -12.580776 77.345528 -2.245020 -11.686173 0.592919 0.051660 0.024820 0.136220 -4.462747 -1.518558 -8.352186 14.615437 -4.785586 27.364266 -8.485583 -1.078173 12.172845 3.091448 -2.519650 -11.513643 -10.411331 -3.470180 47.760866 5.338920 -9.595930 -18.896010 -16.178503 -14.185444 4.240756 -47.984041 -18.456372 0.837325 -115.423887 -58.597321 69.768358 -3.545681 3.301890 0.746890 -0.192240 0.148110 0.150670 10.003359 15.386449 9.310699 41.783400 5.994249 -8.997578 142.895417 57.558083 95.809242 2.251815 -1.439060 -0.178330 0.292010 -0.046170 -0.223070 
-0.540320 17.914150 0.362870 1.509160 27.564999 -10.819549 -15.185552 12.941877 2.616055 -2.555954 -3.223917 -15.726427 3.197177 5.976209 37.836904 -0.190939 6.167062 2.398094 0.468010 0.062430 0.451710 18.396005 -10.068971 4.059920 0.427908 10.191127 -30.746504 -3.956097 -14.614873 85.061300 -2.600783 -12.965053 0.276362 0.048520 0.026650 0.112830 -4.423219 -1.735393 -8.472796 14.077326 -5.183691 28.343741 -8.156774 -1.639404 11.162316 2.979830 -2.598337 -11.037145 -10.531561 -3.483617 47.715420 5.276650 -9.637040 -19.784330 -17.402621 -12.625209 3.581016 -48.953375 -15.748470 -0.943331 -110.350458 -54.599294 60.173307 -3.509443 3.330143 0.793240 -0.206150 0.154210 0.131870 11.471763 13.753598 8.960996 44.697023 3.868934 -9.985335 138.071894 56.445361 86.992297 2.299467 -1.456825 -0.221050 0.337620 -0.026910 -0.245570 
-0.549440 17.782970 0.379230 0.794497 28.548275 -11.533574 -15.217460 12.920277 2.423895 -1.658471 -2.870669 -14.918534 3.707941 6.079618 38.782634 -0.167147 6.363567 2.315230 0.494930 0.077200 0.488230 18.403991 -9.765420 4.387394 1.194564 11.773554 -32.483764 -4.229366 -17.206369 92.599706 -2.981737 -14.222484 -0.025991 0.052570 -0.010950 0.128450 -4.385674 -1.930882 -8.601243 14.118526 -5.401990 29.483644 -7.803260 -1.823035 10.005231 3.000274 -2.615779 -10.586236 -10.538578 -3.576043 47.669526 4.961230 -9.507030 -20.670870 -18.894725 -11.241117 2.962161 -49.664964 -13.137091 -2.840092 -104.901737 -51.323639 51.647980 -3.454308 3.367666 0.829750 -0.232410 0.186710 0.123620 12.911420 12.359808 8.622902 46.621405 1.616122 -11.011836 132.481234 55.190028 77.438091 2.336450 -1.535504 -0.212070 0.323630 -0.035610 -0.262730 
-0.563900 17.648210 0.387040 0.007164 29.411969 -12.731140 -15.257200 12.965926 2.271328 -0.601860 -2.594665 -13.926732 3.957937 6.319096 39.858422 -0.127426 6.611866 2.215443 0.503130 0.083490 0.509670 18.387337 -9.482481 4.644393 1.840137 13.022178 -33.482631 -4.502725 -20.116025 99.282299 -3.307718 -15.322330 -0.265155 0.055110 -0.038690 0.119570 -4.299560 -2.247266 -8.716243 13.959434 -5.800988 31.335290 -7.254584 -2.176014 8.560538 2.926565 -2.907481 -10.189645 -11.233793 -3.095616 48.040654 5.127920 -9.281290 -21.359200 -21.091275 -10.533482 2.498485 -49.697769 -10.903731 -4.477755 -100.880377 -48.497770 45.282187 -3.415240 3.354249 0.853690 -0.256300 0.203680 0.106160 15.261392 11.794007 8.304718 46.840982 -0.292056 -12.145465 127.035832 54.473307 69.520271 2.371856 -1.560535 -0.213640 0.324620 -0.035830 -0.275900 
